<?xml version="1.0" encoding="iso-8859-1"?>
<!-- Uploaded to: SVG Repo, www.svgrepo.com, Generator: SVG Repo Mixer Tools -->
<svg fill="#000000" height="800px" width="800px" version="1.1" id="Capa_1" xmlns="http://www.w3.org/2000/svg" xmlns:xlink="http://www.w3.org/1999/xlink" 
	 viewBox="0 0 612 612" xml:space="preserve">
<g>
	<g>
		<path d="M421.833,412.12c-0.437-1.77-0.925-3.572-1.46-5.386c0.295-3.38,0.444-6.74,0.444-10.004
			c0-63.142-51.37-114.511-114.512-114.511c-49.301,0-92.301,31.09-108.125,76.854c-14.46-15.083-34.597-23.832-55.74-23.832
			c-20.43,0-39.685,7.906-54.219,22.263c-13.364,13.202-21.328,30.461-22.722,49.031C27.837,413.991,0,447.47,0,486.324
			c0,44.858,36.494,81.351,81.351,81.351h307.126c44.858,0,81.351-36.494,81.351-81.351
			C469.83,454.059,451.09,425.256,421.833,412.12z"/>
		<path d="M364.22,132.677h46.394c4.143,0,7.72-1.755,9.816-4.817c2.096-3.062,2.436-7.031,0.937-10.893l-25.526-65.723
			c-2.425-6.244-6.698-6.918-8.424-6.918c-1.726,0-5.999,0.674-8.425,6.918l-25.525,65.724c-1.499,3.862-1.158,7.831,0.937,10.892
			C356.497,130.921,360.077,132.677,364.22,132.677z"/>
		<path d="M255.972,185.475c1.992,4.52,5.839,7.219,10.294,7.219c3.033,0,6.023-1.319,8.416-3.713l32.807-32.806
			c2.929-2.929,4.217-6.698,3.534-10.345c-0.683-3.646-3.248-6.696-7.039-8.367l-64.523-28.424
			c-1.809-0.796-3.534-1.201-5.127-1.201c-2.818,0-5.26,1.265-6.698,3.47c-1.18,1.81-2.153,4.953-0.085,9.644L255.972,185.475z"/>
		<path d="M518.863,352.345c-1.992-4.521-5.84-7.22-10.295-7.22c-3.035,0-6.024,1.32-8.417,3.716l-32.807,32.805
			c-2.929,2.93-4.217,6.701-3.532,10.347c0.684,3.645,3.249,6.694,7.039,8.362l64.521,28.426c1.809,0.796,3.534,1.2,5.127,1.2
			c2.818,0,5.259-1.265,6.698-3.47c1.18-1.81,2.153-4.953,0.088-9.644L518.863,352.345z"/>
		<path d="M500.151,188.981c2.393,2.394,5.383,3.713,8.416,3.713c4.454,0,8.303-2.699,10.295-7.22l28.425-64.521
			c2.066-4.693,1.092-7.834-0.088-9.643c-1.438-2.205-3.88-3.47-6.698-3.47c-1.593,0-3.318,0.404-5.127,1.2l-64.523,28.425
			c-3.79,1.669-6.356,4.719-7.038,8.365c-0.682,3.646,0.605,7.417,3.533,10.345L500.151,188.981z"/>
		<path d="M605.082,260.486l-65.721-25.524c-1.58-0.614-3.176-0.925-4.746-0.925c-6.355,0-10.967,4.91-10.967,11.677l0.001,46.395
			c0,6.765,4.612,11.675,10.967,11.675c1.568,0,3.165-0.311,4.744-0.924l65.722-25.526c6.243-2.426,6.917-6.699,6.917-8.425
			C612,267.185,611.325,262.912,605.082,260.486z"/>
		<path d="M169.75,277.334l30.434,11.821l0.152,0.056c1.241,0.442,2.493,0.666,3.722,0.666c0.001,0,0.001,0,0.001,0
			c4.077,0,6.627-2.358,7.852-3.491c0.107-0.099,0.206-0.194,0.3-0.273c9.448-8.041,19.898-14.838,31.057-20.202
			c5.251-2.523,7.914-6.098,7.914-10.624v-9.575c0-6.765-4.612-11.675-10.967-11.675c-1.569,0-3.166,0.311-4.744,0.924
			l-65.722,25.525c-6.243,2.425-6.918,6.698-6.918,8.423C162.832,270.633,163.506,274.906,169.75,277.334z"/>
		<path d="M274.606,243.403l-0.101,0.535v0.544c0,5.234,3.57,8.751,8.883,8.753c0.001,0,0.001,0,0.001,0
			c1.147,0,2.22-0.154,3.004-0.266l0.407-0.056c6.438-0.862,13-1.298,19.507-1.298c63.822,0,119.502,40.956,138.562,101.938
			c1.613,5.166,4.539,7.786,8.698,7.786c1.767,0,3.593-0.556,5.426-1.657l0.431-0.286c28.563-20.823,43.66-52.111,43.66-90.484
			c0-63.778-51.887-115.667-115.667-115.667c-27.672,0-53.136,8.624-73.641,24.94C293.153,194.591,279.609,217.143,274.606,243.403z
			"/>
	</g>
</g>
</svg>